<svg id="calendar_8_" data-name="calendar (8)" xmlns="http://www.w3.org/2000/svg" width="16.07" height="16.07" viewBox="0 0 16.07 16.07">
  <path id="Path_10525" data-name="Path 10525" d="M14.228,57.4H1.841A1.843,1.843,0,0,1,0,55.557V44.509a1.843,1.843,0,0,1,1.841-1.841H14.228a1.843,1.843,0,0,1,1.841,1.841V55.557A1.843,1.843,0,0,1,14.228,57.4ZM1.841,43.672A.838.838,0,0,0,1,44.509V55.557a.838.838,0,0,0,.837.837H14.228a.838.838,0,0,0,.837-.837V44.509a.838.838,0,0,0-.837-.837Zm0,0" transform="translate(0 -41.329)" fill="#bababa"/>
  <path id="Path_10526" data-name="Path 10526" d="M15.567,171.672H.5a.5.5,0,1,1,0-1H15.567a.5.5,0,1,1,0,1Zm0,0" transform="translate(0 -165.311)" fill="#bababa"/>
  <path id="Path_10527" data-name="Path 10527" d="M107.17,4.017a.5.5,0,0,1-.5-.5V.5a.5.5,0,1,1,1,0V3.515A.5.5,0,0,1,107.17,4.017Zm0,0" transform="translate(-103.32)" fill="#bababa"/>
  <path id="Path_10528" data-name="Path 10528" d="M373.834,4.017a.5.5,0,0,1-.5-.5V.5a.5.5,0,1,1,1,0V3.515A.5.5,0,0,1,373.834,4.017Zm0,0" transform="translate(-361.615)" fill="#bababa"/>
</svg>
