<svg xmlns="http://www.w3.org/2000/svg" width="14.266" height="16.4" viewBox="0 0 14.266 16.4">
  <g id="Layer_2" data-name="Layer 2" transform="translate(-2.8 -0.8)">
    <path id="Path_10689" data-name="Path 10689" d="M5.037,14.866h.1v.1A2.037,2.037,0,0,0,7.171,17h7.659a2.037,2.037,0,0,0,2.037-2.037V5.171a2.037,2.037,0,0,0-2.037-2.037h-.1v-.1A2.037,2.037,0,0,0,12.7,1H5.037A2.037,2.037,0,0,0,3,3.037v9.792a2.037,2.037,0,0,0,2.037,2.037ZM14.829,4.2a.976.976,0,0,1,.971.971v9.792a.976.976,0,0,1-.971.971H7.171a.976.976,0,0,1-.971-.971V5.171A.976.976,0,0,1,7.171,4.2ZM4.067,3.037a.976.976,0,0,1,.971-.971H12.7a.976.976,0,0,1,.971.971v.1h-6.5A2.037,2.037,0,0,0,5.133,5.171V13.8h-.1a.976.976,0,0,1-.971-.971Z" transform="translate(0)" fill="#9a9a9a" stroke="#f4f4f4" stroke-width="0.4"/>
  </g>
</svg>
