<svg id="Group_596" data-name="Group 596" xmlns="http://www.w3.org/2000/svg" width="26.229" height="26.229" viewBox="0 0 26.229 26.229">
  <rect id="Rectangle_2726" data-name="Rectangle 2726" width="26.229" height="26.229" rx="13.114" fill="#fff2e5"/>
  <g id="editing" transform="translate(6.083 6.018)">
    <g id="Group_149" data-name="Group 149" transform="translate(0 2.182)">
      <path id="Path_10444" data-name="Path 10444" d="M7.784,88.479a1.2,1.2,0,0,1-.468.289l-1.693.564a1.2,1.2,0,0,1-.379.061h0a1.2,1.2,0,0,1-1.136-1.576l.564-1.693a1.2,1.2,0,0,1,.289-.468L8.619,82H1.463A1.465,1.465,0,0,0,0,83.463v8.514a1.465,1.465,0,0,0,1.463,1.463H9.978a1.465,1.465,0,0,0,1.463-1.463V84.822Z" transform="translate(0 -82)" fill="#ee8a21"/>
    </g>
    <path id="Path_10445" data-name="Path 10445" d="M182.767,58.271a.4.4,0,0,0-.1.156l-.564,1.693a.4.4,0,0,0,.5.5l1.693-.564a.4.4,0,0,0,.156-.1l4.986-4.986-1.693-1.693Z" transform="translate(-177.241 -51.867)" fill="#ee8a21"/>
    <path id="Path_10446" data-name="Path 10446" d="M417.888.195a.665.665,0,0,0-.941,0l-.659.658,1.693,1.693.659-.658a.665.665,0,0,0,0-.941Z" transform="translate(-405.213 0)" fill="#ee8a21"/>
  </g>
</svg>
