<svg xmlns="http://www.w3.org/2000/svg" width="13.228" height="17.092" viewBox="0 0 13.228 17.092">
  <g id="file_13_" data-name="file (13)" transform="translate(0.2 0.2)">
    <path id="Path_605" data-name="Path 605" d="M61.09,16.139h-1.3a.672.672,0,0,1-.7-.645V1.2a.672.672,0,0,1,.7-.645h5.161a.288.288,0,0,0,.3-.277.288.288,0,0,0-.3-.277H59.791A1.249,1.249,0,0,0,58.5,1.2v14.3a1.249,1.249,0,0,0,1.291,1.2h1.3a.277.277,0,1,0,0-.553Z" transform="translate(-58.5 0)" fill="#a5b4cb" stroke="#a5b4cb" stroke-width="0.4"/>
    <path id="Path_606" data-name="Path 606" d="M162.278,3.9,158.462.081a.281.281,0,0,0-.142-.076A.426.426,0,0,0,158.266,0h-3.191a.277.277,0,1,0,0,.553h2.915V3.171a1.2,1.2,0,0,0,1.2,1.2h2.618V15.494a.646.646,0,0,1-.645.645h-9.67a.277.277,0,1,0,0,.553h9.67a1.2,1.2,0,0,0,1.2-1.2V4.092A.28.28,0,0,0,162.278,3.9Zm-3.09-.081a.646.646,0,0,1-.645-.645V.944l2.872,2.872Z" transform="translate(-149.531 0)" fill="#a5b4cb" stroke="#a5b4cb" stroke-width="0.4"/>
    <path id="Path_607" data-name="Path 607" d="M126.58,164.781h-7.854a.282.282,0,0,0,0,.553h7.854a.282.282,0,0,0,0-.553Z" transform="translate(-116.191 -158.706)" fill="#a5b4cb" stroke="#a5b4cb" stroke-width="0.4"/>
    <path id="Path_608" data-name="Path 608" d="M126.58,231.448h-7.854a.282.282,0,0,0,0,.553h7.854a.282.282,0,0,0,0-.553Z" transform="translate(-116.191 -222.915)" fill="#a5b4cb" stroke="#a5b4cb" stroke-width="0.4"/>
    <path id="Path_609" data-name="Path 609" d="M126.58,298.115h-7.854a.282.282,0,0,0,0,.553h7.854a.282.282,0,0,0,0-.553Z" transform="translate(-116.191 -287.124)" fill="#a5b4cb" stroke="#a5b4cb" stroke-width="0.4"/>
  </g>
</svg>
