<svg xmlns="http://www.w3.org/2000/svg" width="15.229" height="13.806" viewBox="0 0 15.229 13.806">
  <g id="Group_557" data-name="Group 557" transform="translate(0.5 0.5)">
    <g id="Group_16" data-name="Group 16" transform="translate(5.336 6.047)" opacity="0.916">
      <path id="Path_503" data-name="Path 503" d="M46.474,226.362H42.917m1.822,1.778v0Z" transform="translate(-42.917 -224.583)" fill="none" stroke="#0f2f81" stroke-linecap="round" stroke-linejoin="round" stroke-width="1"/>
    </g>
    <path id="Path_504" data-name="Path 504" d="M50.9,225.07v2.846c0,2.846-.711,3.557-3.557,3.557H40.224c-2.846,0-3.557-.711-3.557-3.557v-5.692c0-2.846.712-3.557,3.557-3.557h1.067a1.679,1.679,0,0,1,1.708.854l1.067,1.422a1.127,1.127,0,0,0,1.138.569h2.134C50.184,221.513,50.9,222.224,50.9,225.07Z" transform="translate(-36.667 -218.667)" fill="none" stroke="#0f2f81" stroke-width="1"/>
  </g>
</svg>
