<svg xmlns="http://www.w3.org/2000/svg" width="15.217" height="18.678" viewBox="0 0 15.217 18.678">
  <g id="Group_565" data-name="Group 565" transform="translate(0.759 0.75)">
    <path id="Path_520" data-name="Path 520" d="M1290.843,42.91a5.126,5.126,0,0,0-5.122,5.122V50.5a4.078,4.078,0,0,1-.487,1.759l-.982,1.631a1.638,1.638,0,0,0,.922,2.5,17.862,17.862,0,0,0,11.329,0,1.709,1.709,0,0,0,.922-2.5l-.982-1.631a4.194,4.194,0,0,1-.478-1.759V48.032A5.138,5.138,0,0,0,1290.843,42.91Z" transform="translate(-1283.974 -42.082)" fill="none" stroke="#0f2f81" stroke-linecap="round" stroke-width="1.5"/>
    <path id="Path_521" data-name="Path 521" d="M1293.329,43.016a5.169,5.169,0,0,0-.82-.171,5.765,5.765,0,0,0-2.339.171,1.7,1.7,0,0,1,3.159,0Z" transform="translate(-1284.88 -41.94)" fill="none" stroke="#0f2f81" stroke-linecap="round" stroke-linejoin="round" stroke-width="1.5"/>
    <path id="Path_522" data-name="Path 522" d="M1294.142,59.06a2.561,2.561,0,0,1-5.122,0" transform="translate(-1284.712 -44.444)" fill="none" stroke="#0f2f81" stroke-width="1.5"/>
  </g>
</svg>
