<svg xmlns="http://www.w3.org/2000/svg" width="11.445" height="11.447" viewBox="0 0 11.445 11.447">
  <g id="Group_599" data-name="Group 599" transform="translate(0.5 0.5)">
    <path id="Path_10419" data-name="Path 10419" d="M0,5.224A5.223,5.223,0,1,0,5.223,0,5.223,5.223,0,0,0,0,5.224Zm0,0" transform="translate(0 0)" fill="#fff" stroke="#0f2f81" stroke-width="1"/>
    <path id="Path_10421" data-name="Path 10421" d="M228.285,128.48h.663a.238.238,0,0,1,.238.238v3a.238.238,0,0,1-.238.238h-.663a.238.238,0,0,1-.238-.238v-3A.238.238,0,0,1,228.285,128.48Zm0,0" transform="translate(-223.394 -124.134)" fill="#0f2f81"/>
    <path id="Path_10423" data-name="Path 10423" d="M228.616,335.969a.57.57,0,0,1,.569.57h0a.57.57,0,1,1-1.139,0h0A.57.57,0,0,1,228.616,335.969Zm0,0" transform="translate(-223.394 -333.516)" fill="#0f2f81"/>
  </g>
</svg>
