<svg xmlns="http://www.w3.org/2000/svg" width="15.229" height="15.229" viewBox="0 0 15.229 15.229">
  <path id="Path_497" data-name="Path 497" d="M50.9,131v-4.837c0-1.067-.455-1.494-1.587-1.494H46.435c-1.131,0-1.587.427-1.587,1.494V131c0,1.067.455,1.494,1.587,1.494h2.874C50.441,132.492,50.9,132.066,50.9,131Zm0,6.4v-1.281c0-1.067-.455-1.494-1.587-1.494H46.435c-1.131,0-1.587.427-1.587,1.494V137.4c0,1.067.455,1.494,1.587,1.494h2.874C50.441,138.9,50.9,138.469,50.9,137.4Zm-8.182-4.837V137.4c0,1.067-.455,1.494-1.587,1.494H38.253c-1.131,0-1.587-.427-1.587-1.494v-4.837c0-1.067.455-1.494,1.587-1.494h2.874C42.259,131.07,42.714,131.5,42.714,132.564Zm0-6.4v1.281c0,1.067-.455,1.494-1.587,1.494H38.253c-1.131,0-1.587-.427-1.587-1.494v-1.281c0-1.067.455-1.494,1.587-1.494h2.874C42.259,124.667,42.714,125.094,42.714,126.161Z" transform="translate(-36.167 -124.167)" fill="none" stroke="#0f2f81" stroke-linecap="round" stroke-linejoin="round" stroke-width="1"/>
</svg>
