<svg id="file_15_" data-name="file (15)" xmlns="http://www.w3.org/2000/svg" width="14.268" height="16.918" viewBox="0 0 14.268 16.918">
  <g id="Group_131" data-name="Group 131" transform="translate(0)">
    <g id="Group_130" data-name="Group 130">
      <path id="Path_10433" data-name="Path 10433" d="M53.55,2.242H52.123V.815A.818.818,0,0,0,51.308,0h-10.4A.818.818,0,0,0,40.1.815V13.86a.818.818,0,0,0,.815.815h1.427V16.1a.818.818,0,0,0,.815.815h6.93a2.379,2.379,0,0,0,1.409-.559l2.278-2.144a2.165,2.165,0,0,0,.594-1.374V3.057A.818.818,0,0,0,53.55,2.242Zm-11.211.815V14.064H40.912a.207.207,0,0,1-.2-.2V.815a.207.207,0,0,1,.2-.2h10.4a.207.207,0,0,1,.2.2V2.242H43.154A.818.818,0,0,0,42.339,3.057ZM53.352,13.77l-2.278,2.144a1.082,1.082,0,0,1-.174.128V14.166a.511.511,0,0,1,.51-.51h2.039A.856.856,0,0,1,53.352,13.77Zm.4-.929a.95.95,0,0,1-.028.2H51.409a1.123,1.123,0,0,0-1.121,1.121v2.116a1.066,1.066,0,0,1-.2.025h-6.93a.206.206,0,0,1-.2-.2V3.057a.206.206,0,0,1,.2-.2h10.4a.207.207,0,0,1,.2.2Z" transform="translate(-40.097)" fill="#ee8a21"/>
    </g>
  </g>
  <g id="Group_133" data-name="Group 133" transform="translate(4.994 5.096)">
    <g id="Group_132" data-name="Group 132" transform="translate(0)">
      <path id="Path_10434" data-name="Path 10434" d="M197.452,154.216h-5.911a.306.306,0,0,0,0,.611h5.911a.306.306,0,1,0,0-.611Z" transform="translate(-191.235 -154.216)" fill="#ee8a21"/>
    </g>
  </g>
  <g id="Group_135" data-name="Group 135" transform="translate(4.994 9.172)">
    <g id="Group_134" data-name="Group 134" transform="translate(0)">
      <path id="Path_10435" data-name="Path 10435" d="M197.452,277.59h-5.911a.306.306,0,1,0,0,.611h5.911a.306.306,0,1,0,0-.611Z" transform="translate(-191.235 -277.59)" fill="#ee8a21"/>
    </g>
  </g>
  <g id="Group_137" data-name="Group 137" transform="translate(4.994 11.211)">
    <g id="Group_136" data-name="Group 136" transform="translate(0)">
      <path id="Path_10436" data-name="Path 10436" d="M194.8,339.277h-3.261a.306.306,0,1,0,0,.611H194.8a.306.306,0,0,0,0-.611Z" transform="translate(-191.236 -339.277)" fill="#ee8a21"/>
    </g>
  </g>
  <g id="Group_139" data-name="Group 139" transform="translate(4.994 7.134)">
    <g id="Group_138" data-name="Group 138" transform="translate(0)">
      <path id="Path_10437" data-name="Path 10437" d="M197.452,215.9h-5.911a.306.306,0,0,0,0,.611h5.911a.306.306,0,1,0,0-.611Z" transform="translate(-191.235 -215.903)" fill="#ee8a21"/>
    </g>
  </g>
</svg>
