<svg xmlns="http://www.w3.org/2000/svg" width="26.229" height="26.229" viewBox="0 0 26.229 26.229">
  <g id="Group_603" data-name="Group 603" transform="translate(-1281.771 -617.877)">
    <rect id="Rectangle_3070" data-name="Rectangle 3070" width="26.229" height="26.229" rx="13.114" transform="translate(1281.771 617.877)" fill="#fff2e5"/>
    <g id="Flat_Color" data-name="Flat Color" transform="translate(1288.755 623.895)">
      <path id="Path_10480" data-name="Path 10480" d="M12.768,3.362H8.681A.681.681,0,1,1,8.681,2h4.087a.681.681,0,0,1,0,1.362Z" transform="translate(-4.594 -2)" fill="#e0801b"/>
      <path id="Path_10481" data-name="Path 10481" d="M11.811,16.9H7.725A2.725,2.725,0,0,1,5,14.174V6h9.536v8.174A2.725,2.725,0,0,1,11.811,16.9Z" transform="translate(-3.638 -3.275)" fill="#ee8a21"/>
      <path id="Path_10482" data-name="Path 10482" d="M14.579,7.362H3.681A.681.681,0,0,1,3.681,6h10.9a.681.681,0,1,1,0,1.362Z" transform="translate(-3 -3.275)" fill="#e0801b"/>
      <g id="Group_529" data-name="Group 529" transform="translate(4.087 5.449)">
        <path id="Path_10483" data-name="Path 10483" d="M9.681,15.449A.681.681,0,0,1,9,14.768V10.681a.681.681,0,1,1,1.362,0v4.087A.681.681,0,0,1,9.681,15.449Z" transform="translate(-9 -10)" fill="#edebea"/>
        <path id="Path_10484" data-name="Path 10484" d="M13.681,15.449A.681.681,0,0,1,13,14.768V10.681a.681.681,0,1,1,1.362,0v4.087A.681.681,0,0,1,13.681,15.449Z" transform="translate(-10.275 -10)" fill="#edebea"/>
      </g>
    </g>
  </g>
</svg>
