<svg xmlns="http://www.w3.org/2000/svg" width="22.634" height="20.617" viewBox="0 0 22.634 20.617">
  <path id="discuss-issue" d="M17.318,21.034a1.877,1.877,0,0,1-.864,1.409c-.138.116-.4.327-.394.406a.553.553,0,0,1-.557.557h0a.554.554,0,0,1-.561-.548,1.68,1.68,0,0,1,.8-1.271c.28-.235.463-.4.463-.551a.555.555,0,0,0-1.11,0,.561.561,0,1,1-1.122,0,1.678,1.678,0,0,1,3.355,0Zm-1.8,2.891a.551.551,0,0,0-.549.561v0a.549.549,0,0,0,.549.559.562.562,0,0,0,0-1.125ZM4.2,27.834a.561.561,0,0,0,0,1.122h.047a.561.561,0,0,0,0-1.122Zm1.95,0a.561.561,0,1,0,0,1.122H6.2a.561.561,0,1,0,0-1.122Zm16.482-8.963v6.317A2.7,2.7,0,0,1,19.94,27.9H12.662c-.142,0-.259,0-.357,0s-.218,0-.263,0c-.047.031-.162.137-.273.239l-.147.134L9.562,30.145a.574.574,0,0,1-.957-.414v-5.95H2.726a1.608,1.608,0,0,0-1.6,1.6v6.317a1.583,1.583,0,0,0,1.6,1.566h8.129a.563.563,0,0,1,.374.159l1.678,1.547V29.631a.561.561,0,0,1,1.122,0v6.606a.553.553,0,0,1-.331.51.538.538,0,0,1-.222.045.567.567,0,0,1-.378-.153l-2.46-2.257H2.726A2.707,2.707,0,0,1,0,31.693V25.376a2.732,2.732,0,0,1,2.726-2.718H8.6V18.871a2.722,2.722,0,0,1,2.736-2.7h8.6A2.687,2.687,0,0,1,22.634,18.871Zm-1.122,0A1.564,1.564,0,0,0,19.94,17.3h-8.6a1.6,1.6,0,0,0-1.613,1.575v9.588l1.128-1.02c.052-.048.111-.091.154-.131a1.417,1.417,0,0,1,1.319-.537c.092,0,.2,0,.334,0H19.94a1.574,1.574,0,0,0,1.572-1.587V18.871Z" transform="translate(0 -16.174)" fill="#0f2f81"/>
</svg>
