<svg xmlns="http://www.w3.org/2000/svg" width="18.678" height="18.678" viewBox="0 0 18.678 18.678">
  <g id="Icon_feather-settings" data-name="Icon feather-settings" transform="translate(0.75 0.75)">
    <path id="Path_10399" data-name="Path 10399" d="M18.185,15.842A2.342,2.342,0,1,1,15.842,13.5,2.342,2.342,0,0,1,18.185,15.842Z" transform="translate(-7.254 -7.254)" fill="none" stroke="#0f2f81" stroke-linecap="round" stroke-linejoin="round" stroke-width="1.5"/>
    <path id="Path_10400" data-name="Path 10400" d="M15.867,12.431a1.288,1.288,0,0,0,.258,1.421l.047.047a1.562,1.562,0,1,1-2.21,2.21l-.047-.047a1.3,1.3,0,0,0-2.2.921v.133a1.562,1.562,0,1,1-3.123,0v-.07a1.288,1.288,0,0,0-.843-1.179,1.288,1.288,0,0,0-1.421.258l-.047.047a1.562,1.562,0,1,1-2.21-2.21l.047-.047a1.3,1.3,0,0,0-.921-2.2H3.062a1.562,1.562,0,1,1,0-3.123h.07a1.288,1.288,0,0,0,1.179-.843,1.288,1.288,0,0,0-.258-1.421l-.047-.047a1.562,1.562,0,1,1,2.21-2.21l.047.047a1.288,1.288,0,0,0,1.421.258h.062a1.288,1.288,0,0,0,.781-1.179V3.062a1.562,1.562,0,0,1,3.123,0v.07a1.3,1.3,0,0,0,2.2.921l.047-.047a1.562,1.562,0,1,1,2.21,2.21l-.047.047A1.288,1.288,0,0,0,15.8,7.684v.062a1.288,1.288,0,0,0,1.179.781h.133a1.562,1.562,0,1,1,0,3.123h-.07a1.288,1.288,0,0,0-1.179.781Z" transform="translate(-1.5 -1.5)" fill="none" stroke="#0f2f81" stroke-linecap="round" stroke-linejoin="round" stroke-width="1.5"/>
  </g>
</svg>
