<svg xmlns="http://www.w3.org/2000/svg" width="169.153" height="104.055" viewBox="0 0 169.153 104.055">
  <g id="Group_2354" data-name="Group 2354" transform="translate(-1819.922 -3762.089)">
    <path id="Subtraction_4" data-name="Subtraction 4" d="M58.32,97.848h-11.4V65.589c-.2-.009-.767-.012-1.631-.016h-.006c-3.834-.017-14.015-.061-19.338-.935A31.215,31.215,0,0,1,15.277,60.85a29.756,29.756,0,0,1-8.21-7.034,31.113,31.113,0,0,1-5.256-9.562A34.419,34.419,0,0,1,0,32.883,32.63,32.63,0,0,1,2.014,21.853,33.778,33.778,0,0,1,7.5,12.177a31.889,31.889,0,0,1,8.329-7.288A29.234,29.234,0,0,1,26.38,1.021,107.229,107.229,0,0,1,42.028.207l1.851,0H44.2V11.39c-.395,0-.963-.032-1.682-.072-1.179-.066-2.792-.155-4.631-.155a44.038,44.038,0,0,0-7.3.559,27.91,27.91,0,0,0-7.786,2.417,19.068,19.068,0,0,0-5.129,4.015,20.98,20.98,0,0,0-3.546,5.423,23.273,23.273,0,0,0-1.844,6.339,24.394,24.394,0,0,0-.023,6.763,20.79,20.79,0,0,0,1.759,6,19.771,19.771,0,0,0,3.406,5.08A18.8,18.8,0,0,0,28.3,53.578a70.685,70.685,0,0,0,11.715.856c1.824,0,3.735-.038,5.757-.079l.133,0,.957-.019c0-.694-.005-2.169-.011-4.036v-.015c-.019-5.7-.052-15.238.011-16.969a47.932,47.932,0,0,1,.619-6.228,37.493,37.493,0,0,1,1.492-5.921,31.822,31.822,0,0,1,2.509-5.535,30.433,30.433,0,0,1,3.672-5.069,34.918,34.918,0,0,1,5.135-4.729,29.653,29.653,0,0,1,5.583-3.288A28.743,28.743,0,0,1,71.859.624,31.785,31.785,0,0,1,78.2,0a38.175,38.175,0,0,1,5.65.436,34.264,34.264,0,0,0-8.309,9.6c-.261.468-.517.942-.763,1.408a18.834,18.834,0,0,0-4.653,1.691,19.078,19.078,0,0,0-4.076,2.867,20.6,20.6,0,0,0-3.337,3.968,23.577,23.577,0,0,0-2.436,4.994c-1.369,3.888-1.534,8.991-1.679,13.492-.022.674-.042,1.311-.067,1.935L58.32,51.529v3.08h.033c.209,0,20.9-.005,24.507-.441A20.059,20.059,0,0,0,95.81,47.534a18.614,18.614,0,0,0,3.5-6.345,24.385,24.385,0,0,0,1.109-8.08,26.667,26.667,0,0,0-.92-6.475A22.715,22.715,0,0,0,97.12,21,20.262,20.262,0,0,0,93.4,16.421a19.687,19.687,0,0,0-4.927-3.293,29.161,29.161,0,0,1,8.6-1.99c.852-1.845,1.589-3.439,2.253-4.873a27.829,27.829,0,0,1,7.159,7.344,33.936,33.936,0,0,1,4.432,10,36.691,36.691,0,0,1,1,15.391,32.052,32.052,0,0,1-6.086,14.3l-.027.034a.455.455,0,0,0-.079.577c.145.231.709.263,1.3.263h.391c5.637,0,12.189.007,18.611.007,8.457,0,15.566-.006,21.732-.019a19.835,19.835,0,0,0,3.769-.36,5.611,5.611,0,0,0,2.815-1.354,5.163,5.163,0,0,0,1.485-2.757,6.7,6.7,0,0,0-.04-3.322,4.083,4.083,0,0,0-2-2.454,65.856,65.856,0,0,0-9.569-4.274c-2.536-.907-5.152-1.724-7.681-2.513-2.553-.8-5.193-1.621-7.751-2.538a29.023,29.023,0,0,1-6.313-3.36,14.9,14.9,0,0,1-3.587-3.374,15.528,15.528,0,0,1-2.247-4.19,19.792,19.792,0,0,1-.767-9.68,16.655,16.655,0,0,1,1.346-4.5,13.609,13.609,0,0,1,2.408-3.55,16.6,16.6,0,0,1,7.666-4.409,32.142,32.142,0,0,1,8.3-1.306c5.483-.089,10.86-.1,14.931-.1,2.342,0,4.693,0,6.966.009h.068c2.308,0,4.694.009,7.042.009h2.21l-.024,10.985h-16.1c-3.962,0-9.193,0-14.514.015a28.945,28.945,0,0,0-3.994.286,5.658,5.658,0,0,0-2.711,1.048,4.38,4.38,0,0,0-1.544,2.482,9.082,9.082,0,0,0-.081,3.832,4.4,4.4,0,0,0,1.9,3.034,38.175,38.175,0,0,0,8.024,3.622c2.537.9,5.143,1.745,7.665,2.56,3.988,1.289,8.111,2.622,12.051,4.222a17.882,17.882,0,0,1,6.56,4.418,15.1,15.1,0,0,1,3.634,7.172,19.458,19.458,0,0,1,.138,7.851,15.665,15.665,0,0,1-2.881,6.473,16.5,16.5,0,0,1-5.923,4.822A22.124,22.124,0,0,1,150.6,65.1c-.657.042-1.311.046-1.926.046h-.608l-49.221,0H58.32Z" transform="translate(1820.422 3767.796)" fill="#0f2f81" stroke="rgba(0,0,0,0)" stroke-width="1"/>
    <text id="SINGAPORE" transform="translate(1933.75 3847.25)" fill="#0f2f81" font-size="10" font-family="Roboto-Bold, Roboto" font-weight="700" letter-spacing="0.54em"><tspan x="-49" y="0">SINGAPORE</tspan></text>
    <path id="Path_10777" data-name="Path 10777" d="M1985.167,4282.154s8.637-15.407,23.713-16.527c6.7-14.509,7.985-15.9,7.985-15.9s-18.276.863-26.75,15.4C1984.376,4275.422,1985.167,4282.154,1985.167,4282.154Z" transform="translate(-92.387 -487.638)" fill="#ee8a21"/>
  </g>
</svg>
