<svg xmlns="http://www.w3.org/2000/svg" width="21.557" height="21.557" viewBox="0 0 21.557 21.557">
  <g id="Group_95" data-name="Group 95" transform="translate(0 0)">
    <circle id="Ellipse_202" data-name="Ellipse 202" cx="10.779" cy="10.779" r="10.779" transform="translate(0 0)" fill="#12ac2b"/>
    <path id="Icon_ionic-ios-checkmark" data-name="Icon ionic-ios-checkmark" d="M21.35,13.19l-.9-.922a.193.193,0,0,0-.143-.061h0a.185.185,0,0,0-.143.061L13.951,18.53l-2.263-2.263a.2.2,0,0,0-.285,0l-.907.907a.2.2,0,0,0,0,.29l2.854,2.854a.9.9,0,0,0,.6.29.946.946,0,0,0,.591-.28h.005l6.813-6.849A.218.218,0,0,0,21.35,13.19Z" transform="translate(-5.142 -5.629)" fill="#fff"/>
  </g>
</svg>
