<svg xmlns="http://www.w3.org/2000/svg" width="21.558" height="21.558" viewBox="0 0 21.558 21.558">
  <path id="Subtraction_5" data-name="Subtraction 5" d="M-4510.221-4152.442A10.791,10.791,0,0,1-4521-4163.221a10.7,10.7,0,0,1,3.157-7.622,10.707,10.707,0,0,1,7.622-3.157,10.706,10.706,0,0,1,7.622,3.157,10.7,10.7,0,0,1,3.157,7.622A10.791,10.791,0,0,1-4510.221-4152.442Zm-4.376-11.154a.2.2,0,0,0-.142.06l-.908.908a.2.2,0,0,0-.062.145.205.205,0,0,0,.062.146l2.854,2.854a.9.9,0,0,0,.6.291.93.93,0,0,0,.591-.28l6.818-6.849a.22.22,0,0,0,0-.291l-.9-.922a.19.19,0,0,0-.142-.062.188.188,0,0,0-.144.062l-6.217,6.263-2.262-2.264A.207.207,0,0,0-4514.6-4163.6Z" transform="translate(4521 4174)" fill="#9a9a9a"/>
</svg>
