<svg xmlns="http://www.w3.org/2000/svg" width="14.429" height="14.205" viewBox="0 0 14.429 14.205">
  <g id="user_14_" data-name="user (14)" transform="translate(0.1 0.1)">
    <path id="Path_611" data-name="Path 611" d="M12.72,2a3.465,3.465,0,1,0,3.465,3.465A3.467,3.467,0,0,0,12.72,2Zm0,.99a2.475,2.475,0,1,1-2.475,2.475A2.476,2.476,0,0,1,12.72,2.99Z" transform="translate(-5.79 -2)" fill="#a5b4cb" stroke="#fff" stroke-width="0.2" fill-rule="evenodd"/>
    <path id="Path_612" data-name="Path 612" d="M3.245,22.95h5.94a.5.5,0,1,1,0,.99H2.75a.5.5,0,0,1-.5-.5v-.99A4.455,4.455,0,0,1,6.71,18H9.059a.5.5,0,1,1,0,.99H6.71a3.465,3.465,0,0,0-3.465,3.465Z" transform="translate(-2.255 -10.08)" fill="#a5b4cb" stroke="#fff" stroke-width="0.2" fill-rule="evenodd"/>
    <path id="Path_613" data-name="Path 613" d="M21.97,18.292a2.97,2.97,0,1,0,2.97,2.97A2.971,2.971,0,0,0,21.97,18.292Zm0,.99a1.98,1.98,0,1,1-1.98,1.98A1.981,1.981,0,0,1,21.97,19.282Z" transform="translate(-10.711 -10.227)" fill="#a5b4cb" stroke="#fff" stroke-width="0.2" fill-rule="evenodd"/>
    <path id="Path_614" data-name="Path 614" d="M24.99,24.971V23.96a.5.5,0,0,0-.99,0v1.011a.5.5,0,1,0,.99,0Z" transform="translate(-13.236 -12.84)" fill="#a5b4cb" stroke="#fff" stroke-width="0.2" fill-rule="evenodd"/>
    <circle id="Ellipse_151" data-name="Ellipse 151" cx="0.495" cy="0.495" r="0.495" transform="translate(10.764 9.507)" fill="#a5b4cb" stroke="#fff" stroke-width="0.2"/>
  </g>
</svg>
